<svg width="98" height="98" viewBox="0 0 98 98" fill="none" xmlns="http://www.w3.org/2000/svg">
<g filter="url(#filter0_d_6_19)">
<mask id="path-1-inside-1_6_19" fill="white">
<path d="M89.001 44.9999C89.001 50.2528 87.9664 55.4542 85.9562 60.3073C83.946 65.1603 80.9996 69.5699 77.2853 73.2842C73.5709 76.9985 69.1613 79.9449 64.3083 81.9551C59.4553 83.9653 54.2539 84.9999 49.001 84.9999C43.7481 84.9999 38.5467 83.9653 33.6936 81.9551C28.8406 79.9449 24.4311 76.9985 20.7167 73.2842C17.0024 69.5698 14.056 65.1603 12.0458 60.3073C10.0356 55.4542 9.00098 50.2528 9.00098 44.9999L49.001 44.9999H89.001Z"/>
</mask>
<path d="M89.001 44.9999C89.001 50.2528 87.9664 55.4542 85.9562 60.3073C83.946 65.1603 80.9996 69.5699 77.2853 73.2842C73.5709 76.9985 69.1613 79.9449 64.3083 81.9551C59.4553 83.9653 54.2539 84.9999 49.001 84.9999C43.7481 84.9999 38.5467 83.9653 33.6936 81.9551C28.8406 79.9449 24.4311 76.9985 20.7167 73.2842C17.0024 69.5698 14.056 65.1603 12.0458 60.3073C10.0356 55.4542 9.00098 50.2528 9.00098 44.9999L49.001 44.9999H89.001Z" fill="black"/>
<path d="M89.001 44.9999C89.001 50.2528 87.9664 55.4542 85.9562 60.3073C83.946 65.1603 80.9996 69.5699 77.2853 73.2842C73.5709 76.9985 69.1613 79.9449 64.3083 81.9551C59.4553 83.9653 54.2539 84.9999 49.001 84.9999C43.7481 84.9999 38.5467 83.9653 33.6936 81.9551C28.8406 79.9449 24.4311 76.9985 20.7167 73.2842C17.0024 69.5698 14.056 65.1603 12.0458 60.3073C10.0356 55.4542 9.00098 50.2528 9.00098 44.9999L49.001 44.9999H89.001Z" fill="white"/>
<path d="M89.001 44.9999C89.001 50.2528 87.9664 55.4542 85.9562 60.3073C83.946 65.1603 80.9996 69.5699 77.2853 73.2842C73.5709 76.9985 69.1613 79.9449 64.3083 81.9551C59.4553 83.9653 54.2539 84.9999 49.001 84.9999C43.7481 84.9999 38.5467 83.9653 33.6936 81.9551C28.8406 79.9449 24.4311 76.9985 20.7167 73.2842C17.0024 69.5698 14.056 65.1603 12.0458 60.3073C10.0356 55.4542 9.00098 50.2528 9.00098 44.9999L49.001 44.9999H89.001Z" stroke="black" stroke-width="2" mask="url(#path-1-inside-1_6_19)"/>
</g>
<mask id="path-2-inside-2_6_19" fill="white">
<path d="M9.00097 44.9999C9.00097 34.3913 13.2152 24.2171 20.7167 16.7157C28.2182 9.2142 38.3923 4.99992 49.001 4.99992C59.6096 4.99992 69.7838 9.21419 77.2852 16.7156C84.7867 24.2171 89.001 34.3913 89.001 44.9999L49.001 44.9999L9.00097 44.9999Z"/>
</mask>
<g filter="url(#filter1_i_6_19)">
<path d="M9.00097 44.9999C9.00097 34.3913 13.2152 24.2171 20.7167 16.7157C28.2182 9.2142 38.3923 4.99992 49.001 4.99992C59.6096 4.99992 69.7838 9.21419 77.2852 16.7156C84.7867 24.2171 89.001 34.3913 89.001 44.9999L49.001 44.9999L9.00097 44.9999Z" fill="black"/>
<path d="M9.00097 44.9999C9.00097 34.3913 13.2152 24.2171 20.7167 16.7157C28.2182 9.2142 38.3923 4.99992 49.001 4.99992C59.6096 4.99992 69.7838 9.21419 77.2852 16.7156C84.7867 24.2171 89.001 34.3913 89.001 44.9999L49.001 44.9999L9.00097 44.9999Z" fill="#FF0000"/>
</g>
<path d="M9.00097 44.9999C9.00097 34.3913 13.2152 24.2171 20.7167 16.7157C28.2182 9.2142 38.3923 4.99992 49.001 4.99992C59.6096 4.99992 69.7838 9.21419 77.2852 16.7156C84.7867 24.2171 89.001 34.3913 89.001 44.9999L49.001 44.9999L9.00097 44.9999Z" stroke="black" stroke-width="2" mask="url(#path-2-inside-2_6_19)"/>
<mask id="path-3-inside-3_6_19" fill="white">
<path d="M77.9761 35.164C79.7542 34.5604 80.7218 32.6204 79.9437 30.9114C77.7142 26.0145 74.3467 21.701 70.1026 18.3414C65.8585 14.9819 60.8871 12.6944 55.6092 11.6485C53.7673 11.2835 52.1012 12.6706 51.9219 14.5398V14.5398C51.7426 16.409 53.1204 18.0484 54.9527 18.4593C58.9272 19.3508 62.6657 21.1271 65.8821 23.6731C69.0985 26.2192 71.6855 29.4501 73.4655 33.1139C74.2861 34.8029 76.198 35.7676 77.9761 35.164V35.164Z"/>
</mask>
<path d="M77.9761 35.164C79.7542 34.5604 80.7218 32.6204 79.9437 30.9114C77.7142 26.0145 74.3467 21.701 70.1026 18.3414C65.8585 14.9819 60.8871 12.6944 55.6092 11.6485C53.7673 11.2835 52.1012 12.6706 51.9219 14.5398V14.5398C51.7426 16.409 53.1204 18.0484 54.9527 18.4593C58.9272 19.3508 62.6657 21.1271 65.8821 23.6731C69.0985 26.2192 71.6855 29.4501 73.4655 33.1139C74.2861 34.8029 76.198 35.7676 77.9761 35.164V35.164Z" stroke="white" stroke-width="14" mask="url(#path-3-inside-3_6_19)"/>
<g filter="url(#filter2_d_6_19)">
<line x1="9.00098" y1="45.4999" x2="89.001" y2="45.4999" stroke="black" stroke-width="7"/>
</g>
<g filter="url(#filter3_d_6_19)">
<ellipse cx="49.001" cy="45.4999" rx="15" ry="14.5" fill="black"/>
<ellipse cx="49.001" cy="45.4999" rx="15" ry="14.5" fill="#DCDCDC"/>
<path d="M60.501 45.4999C60.501 51.4641 55.465 56.4999 49.001 56.4999C42.5369 56.4999 37.501 51.4641 37.501 45.4999C37.501 39.5357 42.5369 34.4999 49.001 34.4999C55.465 34.4999 60.501 39.5357 60.501 45.4999Z" stroke="black" stroke-width="7"/>
</g>
<g filter="url(#filter4_d_6_19)">
<circle cx="49.001" cy="44.9999" r="41.5" stroke="black" stroke-width="7" shape-rendering="crispEdges"/>
</g>
<defs>
<filter id="filter0_d_6_19" x="5.00098" y="44.9999" width="88" height="48" filterUnits="userSpaceOnUse" color-interpolation-filters="sRGB">
<feFlood flood-opacity="0" result="BackgroundImageFix"/>
<feColorMatrix in="SourceAlpha" type="matrix" values="0 0 0 0 0 0 0 0 0 0 0 0 0 0 0 0 0 0 127 0" result="hardAlpha"/>
<feOffset dy="4"/>
<feGaussianBlur stdDeviation="2"/>
<feComposite in2="hardAlpha" operator="out"/>
<feColorMatrix type="matrix" values="0 0 0 0 0 0 0 0 0 0 0 0 0 0 0 0 0 0 0.25 0"/>
<feBlend mode="normal" in2="BackgroundImageFix" result="effect1_dropShadow_6_19"/>
<feBlend mode="normal" in="SourceGraphic" in2="effect1_dropShadow_6_19" result="shape"/>
</filter>
<filter id="filter1_i_6_19" x="9.00098" y="4.99991" width="80" height="44" filterUnits="userSpaceOnUse" color-interpolation-filters="sRGB">
<feFlood flood-opacity="0" result="BackgroundImageFix"/>
<feBlend mode="normal" in="SourceGraphic" in2="BackgroundImageFix" result="shape"/>
<feColorMatrix in="SourceAlpha" type="matrix" values="0 0 0 0 0 0 0 0 0 0 0 0 0 0 0 0 0 0 127 0" result="hardAlpha"/>
<feOffset dy="4"/>
<feGaussianBlur stdDeviation="2"/>
<feComposite in2="hardAlpha" operator="arithmetic" k2="-1" k3="1"/>
<feColorMatrix type="matrix" values="0 0 0 0 0 0 0 0 0 0 0 0 0 0 0 0 0 0 0.25 0"/>
<feBlend mode="normal" in2="shape" result="effect1_innerShadow_6_19"/>
</filter>
<filter id="filter2_d_6_19" x="5.00098" y="41.9999" width="88" height="15" filterUnits="userSpaceOnUse" color-interpolation-filters="sRGB">
<feFlood flood-opacity="0" result="BackgroundImageFix"/>
<feColorMatrix in="SourceAlpha" type="matrix" values="0 0 0 0 0 0 0 0 0 0 0 0 0 0 0 0 0 0 127 0" result="hardAlpha"/>
<feOffset dy="4"/>
<feGaussianBlur stdDeviation="2"/>
<feComposite in2="hardAlpha" operator="out"/>
<feColorMatrix type="matrix" values="0 0 0 0 0 0 0 0 0 0 0 0 0 0 0 0 0 0 0.25 0"/>
<feBlend mode="normal" in2="BackgroundImageFix" result="effect1_dropShadow_6_19"/>
<feBlend mode="normal" in="SourceGraphic" in2="effect1_dropShadow_6_19" result="shape"/>
</filter>
<filter id="filter3_d_6_19" x="30.001" y="30.9999" width="38" height="37" filterUnits="userSpaceOnUse" color-interpolation-filters="sRGB">
<feFlood flood-opacity="0" result="BackgroundImageFix"/>
<feColorMatrix in="SourceAlpha" type="matrix" values="0 0 0 0 0 0 0 0 0 0 0 0 0 0 0 0 0 0 127 0" result="hardAlpha"/>
<feOffset dy="4"/>
<feGaussianBlur stdDeviation="2"/>
<feComposite in2="hardAlpha" operator="out"/>
<feColorMatrix type="matrix" values="0 0 0 0 0 0 0 0 0 0 0 0 0 0 0 0 0 0 0.25 0"/>
<feBlend mode="normal" in2="BackgroundImageFix" result="effect1_dropShadow_6_19"/>
<feBlend mode="normal" in="SourceGraphic" in2="effect1_dropShadow_6_19" result="shape"/>
</filter>
<filter id="filter4_d_6_19" x="0.000976562" y="-9.15527e-05" width="98" height="98" filterUnits="userSpaceOnUse" color-interpolation-filters="sRGB">
<feFlood flood-opacity="0" result="BackgroundImageFix"/>
<feColorMatrix in="SourceAlpha" type="matrix" values="0 0 0 0 0 0 0 0 0 0 0 0 0 0 0 0 0 0 127 0" result="hardAlpha"/>
<feOffset dy="4"/>
<feGaussianBlur stdDeviation="2"/>
<feComposite in2="hardAlpha" operator="out"/>
<feColorMatrix type="matrix" values="0 0 0 0 0 0 0 0 0 0 0 0 0 0 0 0 0 0 0.25 0"/>
<feBlend mode="normal" in2="BackgroundImageFix" result="effect1_dropShadow_6_19"/>
<feBlend mode="normal" in="SourceGraphic" in2="effect1_dropShadow_6_19" result="shape"/>
</filter>
</defs>
</svg>
